<svg id="eS05WdcrLmR1" xmlns="http://www.w3.org/2000/svg" xmlns:xlink="http://www.w3.org/1999/xlink" viewBox="0 0 300 300" shape-rendering="geometricPrecision" text-rendering="geometricPrecision"><ellipse rx="65" ry="65" transform="translate(150 150)" stroke-width="0"/><g transform="matrix(0 1-1 0 300 0)"><g><ellipse rx="25" ry="25" transform="translate(150 245)" stroke-width="0"/><ellipse rx="25" ry="25" transform="translate(150 55)" stroke-width="0"/></g><g transform="matrix(0 1-1 0 300 0)"><ellipse rx="25" ry="25" transform="translate(150 245)" stroke-width="0"/><ellipse rx="25" ry="25" transform="translate(150 55)" stroke-width="0"/></g></g><g><g transform="translate(95 0)"><ellipse rx="25" ry="25" transform="translate(125 220)" stroke-width="0"/><ellipse rx="25" ry="25" transform="translate(125 80)" stroke-width="0"/></g></g><g transform="translate(-135 0)"><g transform="translate(95 0)"><ellipse rx="25" ry="25" transform="translate(125 220)" stroke-width="0"/><ellipse rx="25" ry="25" transform="translate(125 80)" stroke-width="0"/></g></g><g transform="matrix(0 1-1 0 300 0)"><ellipse rx="25" ry="25" transform="translate(150 245)" stroke-width="0"/><ellipse rx="25" ry="25" transform="translate(150 55)" stroke-width="0"/></g></svg>
